# Made in Blockbench 5.1.6
mtllib return_pod.mtl

o mesh
v 0.334993378377662 0.593178034629831 0.802670771924608
v 0.334993378377662 0.550425516714122 0.685209194326369
v 0.121230788799119 0.0412891461551499 1.00354189995165
v 0.121230788799119 -0.00146337176055863 0.886080322353413
v 0.217531800779424 0.633352260235239 0.788048549619544
v 0.217531800779424 0.590599742319531 0.670586972021305
v 0.0037692112008807 0.0814633717605586 0.988919677646587
v 0.0037692112008807 0.0387108538448501 0.871458100048349
vt 0.03125 1
vt 0 1
vt 0 0.75
vt 0.03125 0.75
vt 0.03125 0.75
vt 0.03125 1
vt 0 1
vt 0 0.75
vt 0 0.96875
vt 0.03125 0.96875
vt 0.03125 1
vt 0 1
vt 0.03125 0.96875
vt 0.03125 1
vt 0 1
vt 0 0.96875
vt 0.03125 0.75
vt 0.03125 1
vt 0 1
vt 0 0.75
vt 0.03125 1
vt 0 1
vt 0 0.75
vt 0.03125 0.75
vn 0.9396926207859085 -0.3213938048432696 0.11697777844051094
vn -0.9396926207859085 0.3213938048432696 -0.11697777844051094
vn 0.3420201433256686 0.8830222215594891 -0.32139380484326957
vn -0.3420201433256686 -0.8830222215594891 0.32139380484326957
vn -2.775557561562892e-17 0.34202014332566866 0.9396926207859085
vn 2.775557561562892e-17 -0.34202014332566866 -0.9396926207859085
usemtl none
f 2/1/1 1/2/1 3/3/1 4/4/1
f 7/5/2 5/6/2 6/7/2 8/8/2
f 5/9/3 1/10/3 2/11/3 6/12/3
f 4/13/4 3/14/4 7/15/4 8/16/4
f 3/17/5 1/18/5 5/19/5 7/20/5
f 6/21/6 2/22/6 4/23/6 8/24/6
o mesh
v 0.334993378377662 0.550425516714122 0.314790805673631
v 0.334993378377662 0.593178034629831 0.197329228075392
v 0.121230788799119 -0.00146337176055863 0.113919677646587
v 0.121230788799119 0.0412891461551499 -0.00354189995165122
v 0.217531800779424 0.590599742319531 0.329413027978695
v 0.217531800779424 0.633352260235239 0.211951450380456
v 0.0037692112008807 0.0387108538448501 0.128541899951651
v 0.0037692112008807 0.0814633717605586 0.0110803223534127
vt 0.03125 1
vt 0 1
vt 0 0.75
vt 0.03125 0.75
vt 0.03125 0.75
vt 0.03125 1
vt 0 1
vt 0 0.75
vt 0 0.96875
vt 0.03125 0.96875
vt 0.03125 1
vt 0 1
vt 0.03125 0.96875
vt 0.03125 1
vt 0 1
vt 0 0.96875
vt 0.03125 0.75
vt 0.03125 1
vt 0 1
vt 0 0.75
vt 0.03125 1
vt 0 1
vt 0 0.75
vt 0.03125 0.75
vn 0.9396926207859085 -0.3213938048432696 -0.11697777844051094
vn -0.9396926207859085 0.3213938048432696 0.11697777844051094
vn 0.3420201433256686 0.8830222215594891 0.32139380484326957
vn -0.3420201433256686 -0.8830222215594891 -0.32139380484326957
vn 2.775557561562892e-17 -0.34202014332566866 0.9396926207859085
vn -2.775557561562892e-17 0.34202014332566866 -0.9396926207859085
usemtl none
f 10/25/7 9/26/7 11/27/7 12/28/7
f 15/29/8 13/30/8 14/31/8 16/32/8
f 13/33/9 9/34/9 10/35/9 14/36/9
f 12/37/10 11/38/10 15/39/10 16/40/10
f 11/41/11 9/42/11 13/43/11 15/44/11
f 14/45/12 10/46/12 12/47/12 16/48/12
o mesh
v 0.782468199220576 0.633352260235239 0.788048549619544
v 0.782468199220576 0.590599742319531 0.670586972021305
v 0.996230788799119 0.0814633717605586 0.988919677646587
v 0.996230788799119 0.0387108538448501 0.871458100048349
v 0.665006621622338 0.593178034629831 0.802670771924608
v 0.665006621622338 0.550425516714122 0.685209194326369
v 0.878769211200881 0.0412891461551499 1.00354189995165
v 0.878769211200881 -0.00146337176055863 0.886080322353413
vt 0.03125 1
vt 0 1
vt 0 0.75
vt 0.03125 0.75
vt 0.03125 0.75
vt 0.03125 1
vt 0 1
vt 0 0.75
vt 0 0.96875
vt 0.03125 0.96875
vt 0.03125 1
vt 0 1
vt 0.03125 0.96875
vt 0.03125 1
vt 0 1
vt 0 0.96875
vt 0.03125 0.75
vt 0.03125 1
vt 0 1
vt 0 0.75
vt 0.03125 1
vt 0 1
vt 0 0.75
vt 0.03125 0.75
vn 0.9396926207859085 0.3213938048432696 -0.11697777844051094
vn -0.9396926207859085 -0.3213938048432696 0.11697777844051094
vn -0.3420201433256686 0.8830222215594891 -0.32139380484326957
vn 0.3420201433256686 -0.8830222215594891 0.32139380484326957
vn 2.775557561562892e-17 0.34202014332566866 0.9396926207859085
vn -2.775557561562892e-17 -0.34202014332566866 -0.9396926207859085
usemtl none
f 18/49/13 17/50/13 19/51/13 20/52/13
f 23/53/14 21/54/14 22/55/14 24/56/14
f 21/57/15 17/58/15 18/59/15 22/60/15
f 20/61/16 19/62/16 23/63/16 24/64/16
f 19/65/17 17/66/17 21/67/17 23/68/17
f 22/69/18 18/70/18 20/71/18 24/72/18
o mesh
v 0.782468199220576 0.590599742319531 0.329413027978695
v 0.782468199220576 0.633352260235239 0.211951450380456
v 0.996230788799119 0.0387108538448501 0.128541899951651
v 0.996230788799119 0.0814633717605586 0.0110803223534127
v 0.665006621622338 0.550425516714122 0.314790805673631
v 0.665006621622338 0.593178034629831 0.197329228075392
v 0.878769211200881 -0.00146337176055863 0.113919677646587
v 0.878769211200881 0.0412891461551499 -0.00354189995165122
vt 0.03125 1
vt 0 1
vt 0 0.75
vt 0.03125 0.75
vt 0.03125 0.75
vt 0.03125 1
vt 0 1
vt 0 0.75
vt 0 0.96875
vt 0.03125 0.96875
vt 0.03125 1
vt 0 1
vt 0.03125 0.96875
vt 0.03125 1
vt 0 1
vt 0 0.96875
vt 0.03125 0.75
vt 0.03125 1
vt 0 1
vt 0 0.75
vt 0.03125 1
vt 0 1
vt 0 0.75
vt 0.03125 0.75
vn 0.9396926207859085 0.3213938048432696 0.11697777844051094
vn -0.9396926207859085 -0.3213938048432696 -0.11697777844051094
vn -0.3420201433256686 0.8830222215594891 0.32139380484326957
vn 0.3420201433256686 -0.8830222215594891 -0.32139380484326957
vn -2.775557561562892e-17 -0.34202014332566866 0.9396926207859085
vn 2.775557561562892e-17 0.34202014332566866 -0.9396926207859085
usemtl none
f 26/73/19 25/74/19 27/75/19 28/76/19
f 31/77/20 29/78/20 30/79/20 32/80/20
f 29/81/21 25/82/21 26/83/21 30/84/21
f 28/85/22 27/86/22 31/87/22 32/88/22
f 27/89/23 25/90/23 29/91/23 31/92/23
f 30/93/24 26/94/24 28/95/24 32/96/24
o cone
v 0.5 0.7275 0.5
v 0.5 0.2275 0.5
v 0.6172275 0.7275 0.0624999999999999
v 0.8202725 0.7275 0.1797275
v 0.9375 0.7275 0.3827725
v 0.9375 0.7275 0.6172275
v 0.8202725 0.7275 0.8202725
v 0.6172275 0.7275 0.9375
v 0.3827725 0.7275 0.9375
v 0.1797275 0.7275 0.8202725
v 0.0625 0.7275 0.6172275
v 0.0625 0.7275 0.3827725
v 0.1797275 0.7275 0.1797275
v 0.3827725 0.7275 0.0624999999999999
v 0.433511875 0.511085 0.748136875
v 0.39126625 0.50779 0.720416875
v 0.345905 0.5082025 0.724329375
v 0.43249 0.5154425 0.24805
vt 0.01617734375 0.99191140625
vt 0.0140084375 1
vt 0 0.99191140625
vt 0 0.7495125
vt 0.008371875 0.7495125
vt 0.0041859375 1
vt 0.0161759375 0.99191078125
vt 0.01400953125 1
vt 0 0.99191078125
vt 0 0.7495125
vt 0.008371875 0.7495125
vt 0.0041859375 1
vt 0.015625 0.991628125
vt 0.015625 1
vt 0 0.9958140625
vt 0 0.7495125
vt 0.008371875 0.7495125
vt 0.0041859375 1
vt 0 0.98382265625
vt 0.00808859375 0.9859915625
vt 0 1
vt 0 0.7495125
vt 0.008371875 0.7495125
vt 0.0041859375 1
vt 0 0.9838240625
vt 0.00808921875 0.98599046875
vt 0 1
vt 0 0.7495125
vt 0.008371875 0.7495125
vt 0.0041859375 1
vt 0 0.984375
vt 0.008371875 0.984375
vt 0.0041859375 1
vt 0 1
vt 0.00216890625 0.99191140625
vt 0.01617734375 1
vt 0 1
vt 0.00216640625 0.99191078125
vt 0.0161759375 1
vt 0 1
vt 0 0.991628125
vt 0.015625 0.9958140625
vt 0 0.7495125
vt 0.008371875 0.7495125
vt 0.0041859375 1
vt 0.00808859375 1
vt 0 0.99783109375
vt 0.00808859375 0.98382265625
vt 0 0.7495125
vt 0.008371875 0.7495125
vt 0.0041859375 1
vt 0.00808921875 1
vt 0 0.99783359375
vt 0.00808921875 0.9838240625
vt 0.008371875 1
vt 0 1
vt 0.0041859375 0.984375
vt 0 0.7495125
vt 0.008371875 0.7495125
vt 0.00656 0.8579309374999999
vt 0.00656 0.8579309374999999
vt 0.0041859375 1
vt 0 0.7495125
vt 0 0.7495125
vt 0.008371875 0.7495125
vt 0.003613125 0.8595818749999999
vt 0.001811875 0.8579309374999999
vt 0.008371875 0.7495125
vt 0.0041859375 1
vt 0.003613125 0.8595818749999999
vt 0.0041859375 1
vt 0.001811875 0.8579309374999999
vt 0.003613125 0.8595818749999999
vt 0 0.859375
vt 0 0.7495125
vt 0.008371875 0.7495125
vt 0.0041859375 1
vt 0 0.7495125
vt 0.008371875 0.7495125
vt 0.0065965625 0.85574796875
vt 0.0065965625 0.85574796875
vt 0.0041859375 1
vt 0 0.7495125
vt 0 0.7495125
vt 0.008371875 0.7495125
vt 0.0017753125 0.85574796875
vt 0.008371875 0.7495125
vt 0.0041859375 1
vt 0.0017753125 0.85574796875
vn 0 1 1.2246467991473532e-16
vn 0.3762868941576426 -0.6585047081570005 -0.651751273585452
vn 0 1 1.2246467991473532e-16
vn 0.6517512735854519 -0.6585047081570006 -0.37628689415764266
vn 0 1 1.2246467991473532e-16
vn 0.7525766947068778 -0.658504607868518 -8.064355602499636e-17
vn 0 1 1.2246467991473532e-16
vn 0.6517512735854519 -0.6585047081570006 0.37628689415764255
vn 0 1 1.2246467991473532e-16
vn 0.3762868941576426 -0.6585047081570007 0.6517512735854518
vn 0 1 1.2246467991473532e-16
vn 0 1 1.2246467991473532e-16
vn 0 1 1.2246467991473532e-16
vn 0 1 1.2246467991473532e-16
vn -0.7525766947068778 -0.658504607868518 -8.064355602499636e-17
vn 0 1 1.2246467991473532e-16
vn -0.6517512735854519 -0.6585047081570006 -0.37628689415764266
vn 0 1 1.2246467991473532e-16
vn 0 1 1.2246467991473532e-16
vn 0 -0.6585046078685182 0.7525766947068779
vn 1.5708242166418004e-16 -0.6585046078685183 0.7525766947068779
vn -0.3762866454002782 -0.6585052767468055 0.6517508427229063
vn -0.3762847144754321 -0.6585043499059872 0.6517528939767248
vn -0.37629234092241287 -0.6585040690414837 0.6517487746202056
vn -0.6517510748423012 -0.6585049704294512 0.3762867794138041
vn -0.3762873261197969 -0.658503720810194 -0.6517520217695866
vn -0.37628910622743345 -0.6585050717266353 -0.6517496291098739
vn 0 -0.6585039797390677 -0.7525772443196842
vn 0.000001741822858020259 -0.6585048391618331 -0.7525764923231487
usemtl none
f 36/97/25 35/98/25 33/99/25
f 35/100/26 36/101/26 34/102/26
f 37/103/27 36/104/27 33/105/27
f 36/106/28 37/107/28 34/108/28
f 38/109/29 37/110/29 33/111/29
f 37/112/30 38/113/30 34/114/30
f 39/115/31 38/116/31 33/117/31
f 38/118/32 39/119/32 34/120/32
f 40/121/33 39/122/33 33/123/33
f 39/124/34 40/125/34 34/126/34
f 41/127/35 40/128/35 33/129/35
f 42/130/36 41/131/36 33/132/36
f 43/133/37 42/134/37 33/135/37
f 44/136/38 43/137/38 33/138/38
f 43/139/39 44/140/39 34/141/39
f 45/142/40 44/143/40 33/144/40
f 44/145/41 45/146/41 34/147/41
f 46/148/42 45/149/42 33/150/42
f 35/151/43 46/152/43 33/153/43
f 40/154/44 41/155/44 47/156/44
f 47/157/45 34/158/45 40/159/45
f 41/160/46 42/161/46 48/162/46 47/163/46
f 42/164/47 34/165/47 48/166/47
f 34/167/48 47/168/48 48/169/48
f 49/170/49 42/171/49 43/172/49 34/173/49
f 45/174/50 46/175/50 50/176/50
f 50/177/51 34/178/51 45/179/51
f 46/180/52 35/181/52 50/182/52
f 35/183/53 34/184/53 50/185/53
o sphere
v 0.5 0.44625 0.5
v 0.5 1.63375 0.5
v 0.57117375 1.5542025 0.765625
v 0.623276875 1.336875 0.96007625
v 0.642348125 1.04 1.03125
v 0.623276875 0.743125 0.96007625
v 0.57117375 0.5257975 0.765625
v 0.69445125 1.5542025 0.69445125
v 0.83679875 1.336875 0.83679875
v 0.888901875 1.04 0.888901875
v 0.83679875 0.743125 0.83679875
v 0.69445125 0.5257975 0.69445125
v 0.765625 1.5542025 0.57117375
v 0.96007625 1.336875 0.623276875
v 1.03125 1.04 0.642348125
v 0.96007625 0.743125 0.623276875
v 0.765625 0.5257975 0.57117375
v 0.765625 1.5542025 0.42882625
v 0.96007625 1.336875 0.376723125
v 1.03125 1.04 0.357651875
v 0.96007625 0.743125 0.376723125
v 0.765625 0.5257975 0.42882625
v 0.69445125 1.5542025 0.30554875
v 0.83679875 1.336875 0.16320125
v 0.888901875 1.04 0.111098125
v 0.83679875 0.743125 0.16320125
v 0.69445125 0.5257975 0.30554875
v 0.57117375 1.5542025 0.234375
v 0.623276875 1.336875 0.03992375
v 0.642348125 1.04 -0.03125
v 0.623276875 0.743125 0.03992375
v 0.57117375 0.5257975 0.234375
v 0.42882625 1.5542025 0.234375
v 0.376723125 1.336875 0.03992375
v 0.357651875 1.04 -0.03125
v 0.376723125 0.743125 0.03992375
v 0.42882625 0.5257975 0.234375
v 0.30554875 1.5542025 0.30554875
v 0.16320125 1.336875 0.16320125
v 0.111098125 1.04 0.111098125
v 0.16320125 0.743125 0.16320125
v 0.30554875 0.5257975 0.30554875
v 0.234375 1.5542025 0.42882625
v 0.03992375 1.336875 0.376723125
v -0.03125 1.04 0.357651875
v 0.03992375 0.743125 0.376723125
v 0.234375 0.5257975 0.42882625
v 0.234375 1.5542025 0.57117375
v 0.03992375 1.336875 0.623276875
v -0.03125 1.04 0.642348125
v 0.03992375 0.743125 0.623276875
v 0.234375 0.5257975 0.57117375
v 0.30554875 1.5542025 0.69445125
v 0.16320125 1.336875 0.83679875
v 0.111098125 1.04 0.888901875
v 0.16320125 0.743125 0.83679875
v 0.30554875 0.5257975 0.69445125
v 0.42882625 1.5542025 0.765625
v 0.376723125 1.336875 0.96007625
v 0.357651875 1.04 1.03125
v 0.376723125 0.743125 0.96007625
v 0.42882625 0.5257975 0.765625
vt 0 0.9919125
vt 0.0041875 0.9919125
vt 0.00209375 1
vt 0.0015328125 1
vt 0 0.9919125
vt 0.007253125 0.9919125
vt 0.0057203125 1
vt 0.000559375 1
vt 0 0.9919125
vt 0.008371875 0.9919125
vt 0.0078125 1
vt 0 1
vt 0.000559375 0.9919125
vt 0.0078125 0.9919125
vt 0.008371875 1
vt 0 1
vt 0.0015328125 0.9919125
vt 0.0057203125 0.9919125
vt 0.007253125 1
vt 0.0041875 1
vt 0 1
vt 0.00209375 0.9919125
vt 0 0.9919125
vt 0.0041875 0.9919125
vt 0.00209375 1
vt 0.0015328125 1
vt 0 0.9919125
vt 0.007253125 0.9919125
vt 0.0057203125 1
vt 0.000559375 1
vt 0 0.9919125
vt 0.008371875 0.9919125
vt 0.0078125 1
vt 0 1
vt 0.000559375 0.9919125
vt 0.0078125 0.9919125
vt 0.008371875 1
vt 0 1
vt 0.0015328125 0.9919125
vt 0.0057203125 0.9919125
vt 0.007253125 1
vt 0.0041875 1
vt 0 1
vt 0.00209375 0.9919125
vt 0 0.9919125
vt 0.0041875 0.9919125
vt 0.00209375 1
vt 0.0015328125 1
vt 0 0.9919125
vt 0.007253125 0.9919125
vt 0.0057203125 1
vt 0.000559375 1
vt 0 0.9919125
vt 0.008371875 0.9919125
vt 0.0078125 1
vt 0 1
vt 0.000559375 0.9919125
vt 0.0078125 0.9919125
vt 0.008371875 1
vt 0 1
vt 0.0015328125 0.9919125
vt 0.0057203125 0.9919125
vt 0.007253125 1
vt 0.0041875 1
vt 0 1
vt 0.00209375 0.9919125
vt 0 0.9919125
vt 0.0041875 0.9919125
vt 0.00209375 1
vt 0.0015328125 1
vt 0 0.9919125
vt 0.007253125 0.9919125
vt 0.0057203125 1
vt 0.000559375 1
vt 0 0.9919125
vt 0.008371875 0.9919125
vt 0.0078125 1
vt 0 1
vt 0.000559375 0.9919125
vt 0.0078125 0.9919125
vt 0.008371875 1
vt 0 1
vt 0.0015328125 0.9919125
vt 0.0057203125 0.9919125
vt 0.007253125 1
vt 0.0041875 1
vt 0 1
vt 0.00209375 0.9919125
vt 0 0.9919125
vt 0.0041875 0.9919125
vt 0.00209375 1
vt 0.0015328125 1
vt 0 0.9919125
vt 0.007253125 0.9919125
vt 0.0057203125 1
vt 0.000559375 1
vt 0 0.9919125
vt 0.008371875 0.9919125
vt 0.0078125 1
vt 0 1
vt 0.000559375 0.9919125
vt 0.0078125 0.9919125
vt 0.008371875 1
vt 0 1
vt 0.0015328125 0.9919125
vt 0.0057203125 0.9919125
vt 0.007253125 1
vt 0.0041875 1
vt 0 1
vt 0.00209375 0.9919125
vt 0 0.9919125
vt 0.0041875 0.9919125
vt 0.00209375 1
vt 0.0015328125 1
vt 0 0.9919125
vt 0.007253125 0.9919125
vt 0.0057203125 1
vt 0.000559375 1
vt 0 0.9919125
vt 0.008371875 0.9919125
vt 0.0078125 1
vt 0 1
vt 0.000559375 0.9919125
vt 0.0078125 0.9919125
vt 0.008371875 1
vt 0 1
vt 0.0015328125 0.9919125
vt 0.0057203125 0.9919125
vt 0.007253125 1
vt 0.0041875 1
vt 0 1
vt 0.00209375 0.9919125
vt 0 0.9919125
vt 0.0041875 0.9919125
vt 0.00209375 1
vt 0.0015328125 1
vt 0 0.9919125
vt 0.007253125 0.9919125
vt 0.0057203125 1
vt 0.000559375 1
vt 0 0.9919125
vt 0.008371875 0.9919125
vt 0.0078125 1
vt 0 1
vt 0.000559375 0.9919125
vt 0.0078125 0.9919125
vt 0.008371875 1
vt 0 1
vt 0.0015328125 0.9919125
vt 0.0057203125 0.9919125
vt 0.007253125 1
vt 0.0041875 1
vt 0 1
vt 0.00209375 0.9919125
vt 0 0.9919125
vt 0.0041875 0.9919125
vt 0.00209375 1
vt 0.0015328125 1
vt 0 0.9919125
vt 0.007253125 0.9919125
vt 0.0057203125 1
vt 0.000559375 1
vt 0 0.9919125
vt 0.008371875 0.9919125
vt 0.0078125 1
vt 0 1
vt 0.000559375 0.9919125
vt 0.0078125 0.9919125
vt 0.008371875 1
vt 0 1
vt 0.0015328125 0.9919125
vt 0.0057203125 0.9919125
vt 0.007253125 1
vt 0.0041875 1
vt 0 1
vt 0.00209375 0.9919125
vt 0 0.9919125
vt 0.0041875 0.9919125
vt 0.00209375 1
vt 0.0015328125 1
vt 0 0.9919125
vt 0.007253125 0.9919125
vt 0.0057203125 1
vt 0.000559375 1
vt 0 0.9919125
vt 0.008371875 0.9919125
vt 0.0078125 1
vt 0 1
vt 0.000559375 0.9919125
vt 0.0078125 0.9919125
vt 0.008371875 1
vt 0 1
vt 0.0015328125 0.9919125
vt 0.0057203125 0.9919125
vt 0.007253125 1
vt 0.0041875 1
vt 0 1
vt 0.00209375 0.9919125
vt 0 0.9919125
vt 0.0041875 0.9919125
vt 0.00209375 1
vt 0.0015328125 1
vt 0 0.9919125
vt 0.007253125 0.9919125
vt 0.0057203125 1
vt 0.000559375 1
vt 0 0.9919125
vt 0.008371875 0.9919125
vt 0.0078125 1
vt 0 1
vt 0.000559375 0.9919125
vt 0.0078125 0.9919125
vt 0.008371875 1
vt 0 1
vt 0.0015328125 0.9919125
vt 0.0057203125 0.9919125
vt 0.007253125 1
vt 0.0041875 1
vt 0 1
vt 0.00209375 0.9919125
vt 0 0.9919125
vt 0.0041875 0.9919125
vt 0.00209375 1
vt 0.0015328125 1
vt 0 0.9919125
vt 0.007253125 0.9919125
vt 0.0057203125 1
vt 0.000559375 1
vt 0 0.9919125
vt 0.008371875 0.9919125
vt 0.0078125 1
vt 0 1
vt 0.000559375 0.9919125
vt 0.0078125 0.9919125
vt 0.008371875 1
vt 0 1
vt 0.0015328125 0.9919125
vt 0.0057203125 0.9919125
vt 0.007253125 1
vt 0.0041875 1
vt 0 1
vt 0.00209375 0.9919125
vt 0 0.9919125
vt 0.0041875 0.9919125
vt 0.00209375 1
vt 0.0015328125 1
vt 0 0.9919125
vt 0.007253125 0.9919125
vt 0.0057203125 1
vt 0.000559375 1
vt 0 0.9919125
vt 0.008371875 0.9919125
vt 0.0078125 1
vt 0 1
vt 0.000559375 0.9919125
vt 0.0078125 0.9919125
vt 0.008371875 1
vt 0 1
vt 0.0015328125 0.9919125
vt 0.0057203125 0.9919125
vt 0.007253125 1
vt 0.0041875 1
vt 0 1
vt 0.00209375 0.9919125
vn 0.14344143606530887 0.9579651702875519 0.24844976742887812
vn 0.37262177149137554 0.6667953472726966 0.64539676189621
vn 0.48622256872790054 0.23313720527454043 0.842160707452217
vn 0.4862236740978583 -0.2331371283853936 0.8421600905498862
vn 0.37261804792589154 -0.6667958829202162 0.6453983582877691
vn 0.14344143606530887 -0.9579651702875519 0.24844976742887812
vn 0.24844976742887812 0.9579651702875519 0.14344143606530887
vn 0.6453978958529816 0.6667938838447289 0.37262242618474545
vn 0.8421605010630268 0.23313819932510585 0.48622244956883576
vn 0.8421598522326065 -0.23313827621490946 0.4862235365046565
vn 0.6454003223613854 -0.666793348192813 0.372619181875595
vn 0.24844976742887812 -0.9579651702875519 0.14344143606530887
vn 0.28688463730494307 0.9579651376111822 0
vn 0.745240752996601 0.6667954859423235 0
vn 0.9724439520964061 0.23313678395123058 0
vn 0.9724439520964062 -0.23313678395123055 0
vn 0.745240752996601 -0.6667954859423235 0
vn 0.28688463730494307 -0.9579651376111822 0
vn 0.24844976742887812 0.9579651702875519 -0.14344143606530887
vn 0.64539676189621 0.6667953472726966 -0.37262177149137554
vn 0.842160707452217 0.23313720527454043 -0.48622256872790054
vn 0.8421600905498862 -0.2331371283853936 -0.4862236740978583
vn 0.645398358287769 -0.6667958829202161 -0.3726180479258915
vn 0.24844976742887812 -0.9579651702875519 -0.14344143606530887
vn 0.14344143606530887 0.9579651702875519 -0.24844976742887812
vn 0.37262242618474545 0.6667938838447289 -0.6453978958529816
vn 0.48622244956883576 0.23313819932510585 -0.8421605010630268
vn 0.4862235365046565 -0.23313827621490946 -0.8421598522326065
vn 0.372619181875595 -0.666793348192813 -0.6454003223613854
vn 0.14344143606530887 -0.9579651702875519 -0.24844976742887812
vn 0 0.9579651376111822 -0.28688463730494307
vn 0 0.6667954859423235 -0.745240752996601
vn 0 0.23313678395123058 -0.9724439520964061
vn 0 -0.23313678395123055 -0.9724439520964062
vn 0 -0.6667954859423235 -0.745240752996601
vn 0 -0.9579651376111822 -0.28688463730494307
vn -0.14344143606530887 0.9579651702875519 -0.24844976742887812
vn -0.37262177149137554 0.6667953472726966 -0.64539676189621
vn -0.48622256872790054 0.23313720527454043 -0.842160707452217
vn -0.4862236740978583 -0.2331371283853936 -0.8421600905498862
vn -0.37261804792589154 -0.6667958829202162 -0.6453983582877691
vn -0.14344143606530887 -0.9579651702875519 -0.24844976742887812
vn -0.24844976742887812 0.9579651702875519 -0.14344143606530887
vn -0.6453978958529816 0.6667938838447289 -0.37262242618474545
vn -0.8421605010630268 0.23313819932510585 -0.48622244956883576
vn -0.8421598522326065 -0.23313827621490946 -0.4862235365046565
vn -0.6454003223613854 -0.666793348192813 -0.372619181875595
vn -0.24844976742887812 -0.9579651702875519 -0.14344143606530887
vn -0.28688463730494307 0.9579651376111822 0
vn -0.745240752996601 0.6667954859423235 0
vn -0.9724439520964061 0.23313678395123058 0
vn -0.9724439520964062 -0.23313678395123055 0
vn -0.745240752996601 -0.6667954859423235 0
vn -0.28688463730494307 -0.9579651376111822 0
vn -0.24844976742887812 0.9579651702875519 0.14344143606530887
vn -0.64539676189621 0.6667953472726966 0.37262177149137554
vn -0.842160707452217 0.23313720527454043 0.48622256872790054
vn -0.8421600905498862 -0.2331371283853936 0.4862236740978583
vn -0.645398358287769 -0.6667958829202161 0.3726180479258915
vn -0.24844976742887812 -0.9579651702875519 0.14344143606530887
vn -0.14344143606530887 0.9579651702875519 0.24844976742887812
vn -0.37262242618474545 0.6667938838447289 0.6453978958529816
vn -0.48622244956883576 0.23313819932510585 0.8421605010630268
vn -0.4862235365046565 -0.23313827621490946 0.8421598522326065
vn -0.372619181875595 -0.666793348192813 0.6454003223613854
vn -0.14344143606530887 -0.9579651702875519 0.24844976742887812
vn 0 0.9579651376111822 0.28688463730494307
vn 0 0.6667954859423235 0.745240752996601
vn 0 0.23313678395123058 0.9724439520964061
vn 0 -0.23313678395123055 0.9724439520964062
vn 0 -0.6667954859423235 0.745240752996601
vn 0 -0.9579651376111822 0.28688463730494307
usemtl none
f 53/186/54 58/187/54 52/188/54
f 53/189/55 54/190/55 59/191/55 58/192/55
f 54/193/56 55/194/56 60/195/56 59/196/56
f 55/197/57 56/198/57 61/199/57 60/200/57
f 56/201/58 57/202/58 62/203/58 61/204/58
f 62/205/59 57/206/59 51/207/59
f 58/208/60 63/209/60 52/210/60
f 58/211/61 59/212/61 64/213/61 63/214/61
f 59/215/62 60/216/62 65/217/62 64/218/62
f 60/219/63 61/220/63 66/221/63 65/222/63
f 61/223/64 62/224/64 67/225/64 66/226/64
f 67/227/65 62/228/65 51/229/65
f 63/230/66 68/231/66 52/232/66
f 63/233/67 64/234/67 69/235/67 68/236/67
f 64/237/68 65/238/68 70/239/68 69/240/68
f 65/241/69 66/242/69 71/243/69 70/244/69
f 66/245/70 67/246/70 72/247/70 71/248/70
f 72/249/71 67/250/71 51/251/71
f 68/252/72 73/253/72 52/254/72
f 68/255/73 69/256/73 74/257/73 73/258/73
f 69/259/74 70/260/74 75/261/74 74/262/74
f 70/263/75 71/264/75 76/265/75 75/266/75
f 71/267/76 72/268/76 77/269/76 76/270/76
f 77/271/77 72/272/77 51/273/77
f 73/274/78 78/275/78 52/276/78
f 73/277/79 74/278/79 79/279/79 78/280/79
f 74/281/80 75/282/80 80/283/80 79/284/80
f 75/285/81 76/286/81 81/287/81 80/288/81
f 76/289/82 77/290/82 82/291/82 81/292/82
f 82/293/83 77/294/83 51/295/83
f 78/296/84 83/297/84 52/298/84
f 78/299/85 79/300/85 84/301/85 83/302/85
f 79/303/86 80/304/86 85/305/86 84/306/86
f 80/307/87 81/308/87 86/309/87 85/310/87
f 81/311/88 82/312/88 87/313/88 86/314/88
f 87/315/89 82/316/89 51/317/89
f 83/318/90 88/319/90 52/320/90
f 83/321/91 84/322/91 89/323/91 88/324/91
f 84/325/92 85/326/92 90/327/92 89/328/92
f 85/329/93 86/330/93 91/331/93 90/332/93
f 86/333/94 87/334/94 92/335/94 91/336/94
f 92/337/95 87/338/95 51/339/95
f 88/340/96 93/341/96 52/342/96
f 88/343/97 89/344/97 94/345/97 93/346/97
f 89/347/98 90/348/98 95/349/98 94/350/98
f 90/351/99 91/352/99 96/353/99 95/354/99
f 91/355/100 92/356/100 97/357/100 96/358/100
f 97/359/101 92/360/101 51/361/101
f 93/362/102 98/363/102 52/364/102
f 93/365/103 94/366/103 99/367/103 98/368/103
f 94/369/104 95/370/104 100/371/104 99/372/104
f 95/373/105 96/374/105 101/375/105 100/376/105
f 96/377/106 97/378/106 102/379/106 101/380/106
f 102/381/107 97/382/107 51/383/107
f 98/384/108 103/385/108 52/386/108
f 98/387/109 99/388/109 104/389/109 103/390/109
f 99/391/110 100/392/110 105/393/110 104/394/110
f 100/395/111 101/396/111 106/397/111 105/398/111
f 101/399/112 102/400/112 107/401/112 106/402/112
f 107/403/113 102/404/113 51/405/113
f 103/406/114 108/407/114 52/408/114
f 103/409/115 104/410/115 109/411/115 108/412/115
f 104/413/116 105/414/116 110/415/116 109/416/116
f 105/417/117 106/418/117 111/419/117 110/420/117
f 106/421/118 107/422/118 112/423/118 111/424/118
f 112/425/119 107/426/119 51/427/119
f 108/428/120 53/429/120 52/430/120
f 108/431/121 109/432/121 54/433/121 53/434/121
f 109/435/122 110/436/122 55/437/122 54/438/122
f 110/439/123 111/440/123 56/441/123 55/442/123
f 111/443/124 112/444/124 57/445/124 56/446/124
f 57/447/125 112/448/125 51/449/125
o sphere
v 0.5 0.38375 0.5
v 0.5 2.94625 0.5
v 0.57117375 2.774595 0.765625
v 0.623276875 2.305625 0.96007625
v 0.642348125 1.665 1.03125
v 0.623276875 1.024375 0.96007625
v 0.57117375 0.555405 0.765625
v 0.69445125 2.774595 0.69445125
v 0.83679875 2.305625 0.83679875
v 0.888901875 1.665 0.888901875
v 0.83679875 1.024375 0.83679875
v 0.69445125 0.555405 0.69445125
v 0.765625 2.774595 0.57117375
v 0.96007625 2.305625 0.623276875
v 1.03125 1.665 0.642348125
v 0.96007625 1.024375 0.623276875
v 0.765625 0.555405 0.57117375
v 0.765625 2.774595 0.42882625
v 0.96007625 2.305625 0.376723125
v 1.03125 1.665 0.357651875
v 0.96007625 1.024375 0.376723125
v 0.765625 0.555405 0.42882625
v 0.69445125 2.774595 0.30554875
v 0.83679875 2.305625 0.16320125
v 0.888901875 1.665 0.111098125
v 0.83679875 1.024375 0.16320125
v 0.69445125 0.555405 0.30554875
v 0.57117375 2.774595 0.234375
v 0.623276875 2.305625 0.03992375
v 0.642348125 1.665 -0.03125
v 0.623276875 1.024375 0.03992375
v 0.57117375 0.555405 0.234375
v 0.42882625 2.774595 0.234375
v 0.376723125 2.305625 0.03992375
v 0.357651875 1.665 -0.03125
v 0.376723125 1.024375 0.03992375
v 0.42882625 0.555405 0.234375
v 0.30554875 2.774595 0.30554875
v 0.16320125 2.305625 0.16320125
v 0.111098125 1.665 0.111098125
v 0.16320125 1.024375 0.16320125
v 0.30554875 0.555405 0.30554875
v 0.234375 2.774595 0.42882625
v 0.03992375 2.305625 0.376723125
v -0.03125 1.665 0.357651875
v 0.03992375 1.024375 0.376723125
v 0.234375 0.555405 0.42882625
v 0.234375 2.774595 0.57117375
v 0.03992375 2.305625 0.623276875
v -0.03125 1.665 0.642348125
v 0.03992375 1.024375 0.623276875
v 0.234375 0.555405 0.57117375
v 0.30554875 2.774595 0.69445125
v 0.16320125 2.305625 0.83679875
v 0.111098125 1.665 0.888901875
v 0.16320125 1.024375 0.83679875
v 0.30554875 0.555405 0.69445125
v 0.42882625 2.774595 0.765625
v 0.376723125 2.305625 0.96007625
v 0.357651875 1.665 1.03125
v 0.376723125 1.024375 0.96007625
v 0.42882625 0.555405 0.765625
vt 0 0.9919125
vt 0.0041875 0.9919125
vt 0.00209375 1
vt 0.0015328125 1
vt 0 0.9919125
vt 0.007253125 0.9919125
vt 0.0057203125 1
vt 0.000559375 1
vt 0 0.9919125
vt 0.008371875 0.9919125
vt 0.0078125 1
vt 0 1
vt 0.000559375 0.9919125
vt 0.0078125 0.9919125
vt 0.008371875 1
vt 0 1
vt 0.0015328125 0.9919125
vt 0.0057203125 0.9919125
vt 0.007253125 1
vt 0.0041875 1
vt 0 1
vt 0.00209375 0.9919125
vt 0 0.9919125
vt 0.0041875 0.9919125
vt 0.00209375 1
vt 0.0015328125 1
vt 0 0.9919125
vt 0.007253125 0.9919125
vt 0.0057203125 1
vt 0.000559375 1
vt 0 0.9919125
vt 0.008371875 0.9919125
vt 0.0078125 1
vt 0 1
vt 0.000559375 0.9919125
vt 0.0078125 0.9919125
vt 0.008371875 1
vt 0 1
vt 0.0015328125 0.9919125
vt 0.0057203125 0.9919125
vt 0.007253125 1
vt 0.0041875 1
vt 0 1
vt 0.00209375 0.9919125
vt 0 0.9919125
vt 0.0041875 0.9919125
vt 0.00209375 1
vt 0.0015328125 1
vt 0 0.9919125
vt 0.007253125 0.9919125
vt 0.0057203125 1
vt 0.000559375 1
vt 0 0.9919125
vt 0.008371875 0.9919125
vt 0.0078125 1
vt 0 1
vt 0.000559375 0.9919125
vt 0.0078125 0.9919125
vt 0.008371875 1
vt 0 1
vt 0.0015328125 0.9919125
vt 0.0057203125 0.9919125
vt 0.007253125 1
vt 0.0041875 1
vt 0 1
vt 0.00209375 0.9919125
vt 0 0.9919125
vt 0.0041875 0.9919125
vt 0.00209375 1
vt 0.0015328125 1
vt 0 0.9919125
vt 0.007253125 0.9919125
vt 0.0057203125 1
vt 0.000559375 1
vt 0 0.9919125
vt 0.008371875 0.9919125
vt 0.0078125 1
vt 0 1
vt 0.000559375 0.9919125
vt 0.0078125 0.9919125
vt 0.008371875 1
vt 0 1
vt 0.0015328125 0.9919125
vt 0.0057203125 0.9919125
vt 0.007253125 1
vt 0.0041875 1
vt 0 1
vt 0.00209375 0.9919125
vt 0 0.9919125
vt 0.0041875 0.9919125
vt 0.00209375 1
vt 0.0015328125 1
vt 0 0.9919125
vt 0.007253125 0.9919125
vt 0.0057203125 1
vt 0.000559375 1
vt 0 0.9919125
vt 0.008371875 0.9919125
vt 0.0078125 1
vt 0 1
vt 0.000559375 0.9919125
vt 0.0078125 0.9919125
vt 0.008371875 1
vt 0 1
vt 0.0015328125 0.9919125
vt 0.0057203125 0.9919125
vt 0.007253125 1
vt 0.0041875 1
vt 0 1
vt 0.00209375 0.9919125
vt 0 0.9919125
vt 0.0041875 0.9919125
vt 0.00209375 1
vt 0.0015328125 1
vt 0 0.9919125
vt 0.007253125 0.9919125
vt 0.0057203125 1
vt 0.000559375 1
vt 0 0.9919125
vt 0.008371875 0.9919125
vt 0.0078125 1
vt 0 1
vt 0.000559375 0.9919125
vt 0.0078125 0.9919125
vt 0.008371875 1
vt 0 1
vt 0.0015328125 0.9919125
vt 0.0057203125 0.9919125
vt 0.007253125 1
vt 0.0041875 1
vt 0 1
vt 0.00209375 0.9919125
vt 0 0.9919125
vt 0.0041875 0.9919125
vt 0.00209375 1
vt 0.0015328125 1
vt 0 0.9919125
vt 0.007253125 0.9919125
vt 0.0057203125 1
vt 0.000559375 1
vt 0 0.9919125
vt 0.008371875 0.9919125
vt 0.0078125 1
vt 0 1
vt 0.000559375 0.9919125
vt 0.0078125 0.9919125
vt 0.008371875 1
vt 0 1
vt 0.0015328125 0.9919125
vt 0.0057203125 0.9919125
vt 0.007253125 1
vt 0.0041875 1
vt 0 1
vt 0.00209375 0.9919125
vt 0 0.9919125
vt 0.0041875 0.9919125
vt 0.00209375 1
vt 0.0015328125 1
vt 0 0.9919125
vt 0.007253125 0.9919125
vt 0.0057203125 1
vt 0.000559375 1
vt 0 0.9919125
vt 0.008371875 0.9919125
vt 0.0078125 1
vt 0 1
vt 0.000559375 0.9919125
vt 0.0078125 0.9919125
vt 0.008371875 1
vt 0 1
vt 0.0015328125 0.9919125
vt 0.0057203125 0.9919125
vt 0.007253125 1
vt 0.0041875 1
vt 0 1
vt 0.00209375 0.9919125
vt 0 0.9919125
vt 0.0041875 0.9919125
vt 0.00209375 1
vt 0.0015328125 1
vt 0 0.9919125
vt 0.007253125 0.9919125
vt 0.0057203125 1
vt 0.000559375 1
vt 0 0.9919125
vt 0.008371875 0.9919125
vt 0.0078125 1
vt 0 1
vt 0.000559375 0.9919125
vt 0.0078125 0.9919125
vt 0.008371875 1
vt 0 1
vt 0.0015328125 0.9919125
vt 0.0057203125 0.9919125
vt 0.007253125 1
vt 0.0041875 1
vt 0 1
vt 0.00209375 0.9919125
vt 0 0.9919125
vt 0.0041875 0.9919125
vt 0.00209375 1
vt 0.0015328125 1
vt 0 0.9919125
vt 0.007253125 0.9919125
vt 0.0057203125 1
vt 0.000559375 1
vt 0 0.9919125
vt 0.008371875 0.9919125
vt 0.0078125 1
vt 0 1
vt 0.000559375 0.9919125
vt 0.0078125 0.9919125
vt 0.008371875 1
vt 0 1
vt 0.0015328125 0.9919125
vt 0.0057203125 0.9919125
vt 0.007253125 1
vt 0.0041875 1
vt 0 1
vt 0.00209375 0.9919125
vt 0 0.9919125
vt 0.0041875 0.9919125
vt 0.00209375 1
vt 0.0015328125 1
vt 0 0.9919125
vt 0.007253125 0.9919125
vt 0.0057203125 1
vt 0.000559375 1
vt 0 0.9919125
vt 0.008371875 0.9919125
vt 0.0078125 1
vt 0 1
vt 0.000559375 0.9919125
vt 0.0078125 0.9919125
vt 0.008371875 1
vt 0 1
vt 0.0015328125 0.9919125
vt 0.0057203125 0.9919125
vt 0.007253125 1
vt 0.0041875 1
vt 0 1
vt 0.00209375 0.9919125
vt 0 0.9919125
vt 0.0041875 0.9919125
vt 0.00209375 1
vt 0.0015328125 1
vt 0 0.9919125
vt 0.007253125 0.9919125
vt 0.0057203125 1
vt 0.000559375 1
vt 0 0.9919125
vt 0.008371875 0.9919125
vt 0.0078125 1
vt 0 1
vt 0.000559375 0.9919125
vt 0.0078125 0.9919125
vt 0.008371875 1
vt 0 1
vt 0.0015328125 0.9919125
vt 0.0057203125 0.9919125
vt 0.007253125 1
vt 0.0041875 1
vt 0 1
vt 0.00209375 0.9919125
vn 0.2713787817053628 0.839887389056587 0.4700454558272236
vn 0.4618726387738741 0.3830153615052535 0.7999830613225873
vn 0.49694309251708696 0.11042130493446912 0.8607291665884937
vn 0.49694421495199176 -0.11042126689368927 0.8607285234284625
vn 0.46186822235846176 -0.3830158342329297 0.7999853848054274
vn 0.2713787817053628 -0.839887389056587 0.4700454558272236
vn 0.4700454558272236 0.839887389056587 0.2713787817053628
vn 0.7999835250865568 0.38301406998198795 0.4618729065294038
vn 0.8607291192688796 0.11042179673951417 0.49694306519704684
vn 0.8607284687885772 -0.11042183478064234 0.49694418340548885
vn 0.7999861880693606 -0.3830135972527124 0.4618686861195404
vn 0.4700454558272236 -0.839887389056587 0.2713787817053628
vn 0.5427608552147768 0.8398872865132108 0
vn 0.9237419223482171 0.3830154838859921 0
vn 0.9938848934614847 0.11042109648547017 0
vn 0.9938848934614846 -0.11042109648547016 0
vn 0.9237419223482172 -0.38301548388599216 0
vn 0.5427608552147768 -0.8398872865132108 0
vn 0.4700454558272236 0.839887389056587 -0.2713787817053628
vn 0.7999830613225873 0.3830153615052535 -0.4618726387738741
vn 0.8607291665884937 0.11042130493446912 -0.49694309251708696
vn 0.8607285234284625 -0.11042126689368927 -0.49694421495199176
vn 0.7999853848054274 -0.3830158342329297 -0.46186822235846176
vn 0.4700454558272236 -0.839887389056587 -0.2713787817053628
vn 0.2713787817053628 0.839887389056587 -0.4700454558272236
vn 0.4618729065294038 0.38301406998198795 -0.7999835250865568
vn 0.49694306519704684 0.11042179673951417 -0.8607291192688796
vn 0.49694418340548885 -0.11042183478064234 -0.8607284687885772
vn 0.4618686861195404 -0.3830135972527124 -0.7999861880693606
vn 0.2713787817053628 -0.839887389056587 -0.4700454558272236
vn 0 0.8398872865132108 -0.5427608552147768
vn 0 0.3830154838859921 -0.9237419223482171
vn 0 0.11042109648547017 -0.9938848934614847
vn 0 -0.11042109648547016 -0.9938848934614846
vn 0 -0.38301548388599216 -0.9237419223482172
vn 0 -0.8398872865132108 -0.5427608552147768
vn -0.2713787817053628 0.839887389056587 -0.4700454558272236
vn -0.4618726387738741 0.3830153615052535 -0.7999830613225873
vn -0.49694309251708696 0.11042130493446912 -0.8607291665884937
vn -0.49694421495199176 -0.11042126689368927 -0.8607285234284625
vn -0.46186822235846176 -0.3830158342329297 -0.7999853848054274
vn -0.2713787817053628 -0.839887389056587 -0.4700454558272236
vn -0.4700454558272236 0.839887389056587 -0.2713787817053628
vn -0.7999835250865568 0.38301406998198795 -0.4618729065294038
vn -0.8607291192688796 0.11042179673951417 -0.49694306519704684
vn -0.8607284687885772 -0.11042183478064234 -0.49694418340548885
vn -0.7999861880693606 -0.3830135972527124 -0.4618686861195404
vn -0.4700454558272236 -0.839887389056587 -0.2713787817053628
vn -0.5427608552147768 0.8398872865132108 0
vn -0.9237419223482171 0.3830154838859921 0
vn -0.9938848934614847 0.11042109648547017 0
vn -0.9938848934614846 -0.11042109648547016 0
vn -0.9237419223482172 -0.38301548388599216 0
vn -0.5427608552147768 -0.8398872865132108 0
vn -0.4700454558272236 0.839887389056587 0.2713787817053628
vn -0.7999830613225873 0.3830153615052535 0.4618726387738741
vn -0.8607291665884937 0.11042130493446912 0.49694309251708696
vn -0.8607285234284625 -0.11042126689368927 0.49694421495199176
vn -0.7999853848054274 -0.3830158342329297 0.46186822235846176
vn -0.4700454558272236 -0.839887389056587 0.2713787817053628
vn -0.2713787817053628 0.839887389056587 0.4700454558272236
vn -0.4618729065294038 0.38301406998198795 0.7999835250865568
vn -0.49694306519704684 0.11042179673951417 0.8607291192688796
vn -0.49694418340548885 -0.11042183478064234 0.8607284687885772
vn -0.4618686861195404 -0.3830135972527124 0.7999861880693606
vn -0.2713787817053628 -0.839887389056587 0.4700454558272236
vn 0 0.8398872865132108 0.5427608552147768
vn 0 0.3830154838859921 0.9237419223482171
vn 0 0.11042109648547017 0.9938848934614847
vn 0 -0.11042109648547016 0.9938848934614846
vn 0 -0.38301548388599216 0.9237419223482172
vn 0 -0.8398872865132108 0.5427608552147768
usemtl none
f 115/450/126 120/451/126 114/452/126
f 115/453/127 116/454/127 121/455/127 120/456/127
f 116/457/128 117/458/128 122/459/128 121/460/128
f 117/461/129 118/462/129 123/463/129 122/464/129
f 118/465/130 119/466/130 124/467/130 123/468/130
f 124/469/131 119/470/131 113/471/131
f 120/472/132 125/473/132 114/474/132
f 120/475/133 121/476/133 126/477/133 125/478/133
f 121/479/134 122/480/134 127/481/134 126/482/134
f 122/483/135 123/484/135 128/485/135 127/486/135
f 123/487/136 124/488/136 129/489/136 128/490/136
f 129/491/137 124/492/137 113/493/137
f 125/494/138 130/495/138 114/496/138
f 125/497/139 126/498/139 131/499/139 130/500/139
f 126/501/140 127/502/140 132/503/140 131/504/140
f 127/505/141 128/506/141 133/507/141 132/508/141
f 128/509/142 129/510/142 134/511/142 133/512/142
f 134/513/143 129/514/143 113/515/143
f 130/516/144 135/517/144 114/518/144
f 130/519/145 131/520/145 136/521/145 135/522/145
f 131/523/146 132/524/146 137/525/146 136/526/146
f 132/527/147 133/528/147 138/529/147 137/530/147
f 133/531/148 134/532/148 139/533/148 138/534/148
f 139/535/149 134/536/149 113/537/149
f 135/538/150 140/539/150 114/540/150
f 135/541/151 136/542/151 141/543/151 140/544/151
f 136/545/152 137/546/152 142/547/152 141/548/152
f 137/549/153 138/550/153 143/551/153 142/552/153
f 138/553/154 139/554/154 144/555/154 143/556/154
f 144/557/155 139/558/155 113/559/155
f 140/560/156 145/561/156 114/562/156
f 140/563/157 141/564/157 146/565/157 145/566/157
f 141/567/158 142/568/158 147/569/158 146/570/158
f 142/571/159 143/572/159 148/573/159 147/574/159
f 143/575/160 144/576/160 149/577/160 148/578/160
f 149/579/161 144/580/161 113/581/161
f 145/582/162 150/583/162 114/584/162
f 145/585/163 146/586/163 151/587/163 150/588/163
f 146/589/164 147/590/164 152/591/164 151/592/164
f 147/593/165 148/594/165 153/595/165 152/596/165
f 148/597/166 149/598/166 154/599/166 153/600/166
f 154/601/167 149/602/167 113/603/167
f 150/604/168 155/605/168 114/606/168
f 150/607/169 151/608/169 156/609/169 155/610/169
f 151/611/170 152/612/170 157/613/170 156/614/170
f 152/615/171 153/616/171 158/617/171 157/618/171
f 153/619/172 154/620/172 159/621/172 158/622/172
f 159/623/173 154/624/173 113/625/173
f 155/626/174 160/627/174 114/628/174
f 155/629/175 156/630/175 161/631/175 160/632/175
f 156/633/176 157/634/176 162/635/176 161/636/176
f 157/637/177 158/638/177 163/639/177 162/640/177
f 158/641/178 159/642/178 164/643/178 163/644/178
f 164/645/179 159/646/179 113/647/179
f 160/648/180 165/649/180 114/650/180
f 160/651/181 161/652/181 166/653/181 165/654/181
f 161/655/182 162/656/182 167/657/182 166/658/182
f 162/659/183 163/660/183 168/661/183 167/662/183
f 163/663/184 164/664/184 169/665/184 168/666/184
f 169/667/185 164/668/185 113/669/185
f 165/670/186 170/671/186 114/672/186
f 165/673/187 166/674/187 171/675/187 170/676/187
f 166/677/188 167/678/188 172/679/188 171/680/188
f 167/681/189 168/682/189 173/683/189 172/684/189
f 168/685/190 169/686/190 174/687/190 173/688/190
f 174/689/191 169/690/191 113/691/191
f 170/692/192 115/693/192 114/694/192
f 170/695/193 171/696/193 116/697/193 115/698/193
f 171/699/194 172/700/194 117/701/194 116/702/194
f 172/703/195 173/704/195 118/705/195 117/706/195
f 173/707/196 174/708/196 119/709/196 118/710/196
f 119/711/197 174/712/197 113/713/197
o cone
v 0.5 2.44625 0.5
v 0.5 3.75875 0.5
v 0.60048125 2.44625 0.875
v 0.77451875 2.44625 0.77451875
v 0.875 2.44625 0.60048125
v 0.875 2.44625 0.39951875
v 0.77451875 2.44625 0.22548125
v 0.60048125 2.44625 0.125
v 0.39951875 2.44625 0.125
v 0.22548125 2.44625 0.22548125
v 0.125 2.44625 0.39951875
v 0.125 2.44625 0.60048125
v 0.22548125 2.44625 0.77451875
v 0.39951875 2.44625 0.875
v 0.44301 3.014339375 0.28731125
v 0.406799375 3.022989375 0.31107125
v 0.36791875 3.021905625 0.3077175
v 0.442134375 3.002900625 0.715956875
vt 0.01617734375 0.99191140625
vt 0.0140084375 1
vt 0 0.99191140625
vt 0 0.7495125
vt 0.008371875 0.7495125
vt 0.0041859375 1
vt 0.0161759375 0.99191078125
vt 0.01400953125 1
vt 0 0.99191078125
vt 0 0.7495125
vt 0.008371875 0.7495125
vt 0.0041859375 1
vt 0.015625 0.991628125
vt 0.015625 1
vt 0 0.9958140625
vt 0 0.7495125
vt 0.008371875 0.7495125
vt 0.0041859375 1
vt 0 0.98382265625
vt 0.00808859375 0.9859915625
vt 0 1
vt 0 0.7495125
vt 0.008371875 0.7495125
vt 0.0041859375 1
vt 0 0.9838240625
vt 0.00808921875 0.98599046875
vt 0 1
vt 0 0.7495125
vt 0.008371875 0.7495125
vt 0.0041859375 1
vt 0 0.984375
vt 0.008371875 0.984375
vt 0.0041859375 1
vt 0 1
vt 0.00216890625 0.99191140625
vt 0.01617734375 1
vt 0 1
vt 0.00216640625 0.99191078125
vt 0.0161759375 1
vt 0 1
vt 0 0.991628125
vt 0.015625 0.9958140625
vt 0 0.7495125
vt 0.008371875 0.7495125
vt 0.0041859375 1
vt 0.00808859375 1
vt 0 0.99783109375
vt 0.00808859375 0.98382265625
vt 0 0.7495125
vt 0.008371875 0.7495125
vt 0.0041859375 1
vt 0.00808921875 1
vt 0 0.99783359375
vt 0.00808921875 0.9838240625
vt 0.008371875 1
vt 0 1
vt 0.0041859375 0.984375
vt 0 0.7495125
vt 0.008371875 0.7495125
vt 0.00656 0.8579309374999999
vt 0.00656 0.8579309374999999
vt 0.0041859375 1
vt 0 0.7495125
vt 0 0.7495125
vt 0.008371875 0.7495125
vt 0.003613125 0.8595818749999999
vt 0.001811875 0.8579309374999999
vt 0.008371875 0.7495125
vt 0.0041859375 1
vt 0.003613125 0.8595818749999999
vt 0.0041859375 1
vt 0.001811875 0.8579309374999999
vt 0.003613125 0.8595818749999999
vt 0 0.859375
vt 0 0.7495125
vt 0.008371875 0.7495125
vt 0.0041859375 1
vt 0 0.7495125
vt 0.008371875 0.7495125
vt 0.0065965625 0.85574796875
vt 0.0065965625 0.85574796875
vt 0.0041859375 1
vt 0 0.7495125
vt 0 0.7495125
vt 0.008371875 0.7495125
vt 0.0017753125 0.85574796875
vt 0.008371875 0.7495125
vt 0.0041859375 1
vt 0.0017753125 0.85574796875
vn 0 -1 0
vn 0.4807643280717441 0.2747210390802547 0.8327028350740675
vn 0 -1 0
vn 0.8327028350740675 0.2747210390802547 0.4807643280717441
vn 0 -1 0
vn 0.9615239476408232 0.27472112789737807 0
vn 0 -1 0
vn 0.8327028350740675 0.2747210390802547 -0.4807643280717441
vn 0 -1 0
vn 0.4807643280717441 0.2747210390802547 -0.8327028350740675
vn 0 -1 0
vn 0 -1 0
vn 0 -1 0
vn 0 -1 0
vn -0.9615239476408232 0.27472112789737807 0
vn 0 -1 0
vn -0.8327028350740675 0.2747210390802547 0.4807643280717441
vn 0 -1 0
vn 0 -1 0
vn 0 0.274721127897378 -0.9615239476408232
vn 8.919747728656197e-17 0.27472112789737807 -0.9615239476408232
vn -0.48076435513819044 0.2747208496159166 -0.8327028819542232
vn -0.48076577163511 0.27472115845287415 -0.8327019622424389
vn -0.48076237515232806 0.27472122602613774 -0.8327039009207223
vn -0.8327029725347106 0.2747204835379758 -0.4807644074351987
vn -0.48076430545989657 0.2747211973624228 0.832702795909453
vn -0.48076362325651756 0.2747209807967083 0.8327032612301696
vn 0 0.2747212704842575 0.9615239069017034
vn -7.418076056869021e-7 0.2747210753927195 0.9615239626418665
usemtl none
f 178/714/198 177/715/198 175/716/198
f 177/717/199 178/718/199 176/719/199
f 179/720/200 178/721/200 175/722/200
f 178/723/201 179/724/201 176/725/201
f 180/726/202 179/727/202 175/728/202
f 179/729/203 180/730/203 176/731/203
f 181/732/204 180/733/204 175/734/204
f 180/735/205 181/736/205 176/737/205
f 182/738/206 181/739/206 175/740/206
f 181/741/207 182/742/207 176/743/207
f 183/744/208 182/745/208 175/746/208
f 184/747/209 183/748/209 175/749/209
f 185/750/210 184/751/210 175/752/210
f 186/753/211 185/754/211 175/755/211
f 185/756/212 186/757/212 176/758/212
f 187/759/213 186/760/213 175/761/213
f 186/762/214 187/763/214 176/764/214
f 188/765/215 187/766/215 175/767/215
f 177/768/216 188/769/216 175/770/216
f 182/771/217 183/772/217 189/773/217
f 189/774/218 176/775/218 182/776/218
f 183/777/219 184/778/219 190/779/219 189/780/219
f 184/781/220 176/782/220 190/783/220
f 176/784/221 189/785/221 190/786/221
f 191/787/222 184/788/222 185/789/222 176/790/222
f 187/791/223 188/792/223 192/793/223
f 192/794/224 176/795/224 187/796/224
f 188/797/225 177/798/225 192/799/225
f 177/800/226 176/801/226 192/802/226
o pyramid
v 0.5 4.2275 0.5
v 0.53125 3.2275 0.53125
v 0.53125 3.2275 0.46875
v 0.46875 3.2275 0.53125
v 0.46875 3.2275 0.46875
vt 0.03125 0.96875
vt 0.03125 1
vt 0 1
vt 0 0.96875
vt 0 0.7495125
vt 0.03125 0.7495125
vt 0.015625 1
vt 0 0.7495125
vt 0.03125 0.7495125
vt 0.015625 1
vt 0 0.7495125
vt 0.03125 0.7495125
vt 0.015625 1
vt 0 0.7495125
vt 0.03125 0.7495125
vt 0.015625 1
vn 0 -1 0
vn 0.9995120760870788 0.031234752377721213 0
vn 0 0.031234752377721213 0.9995120760870788
vn 0 0.031234752377721213 -0.9995120760870788
vn -0.9995120760870788 0.031234752377721213 0
usemtl none
f 195/803/227 194/804/227 196/805/227 197/806/227
f 194/807/228 195/808/228 193/809/228
f 196/810/229 194/811/229 193/812/229
f 195/813/230 197/814/230 193/815/230
f 197/816/231 196/817/231 193/818/231
o sphere
v 0.5 4.13375 0.5
v 0.5 4.19625 0.5
v 0.504186875 4.192063125 0.515625
v 0.507251875 4.180625 0.527063125
v 0.508373125 4.165 0.53125
v 0.507251875 4.149375 0.527063125
v 0.504186875 4.137936875 0.515625
v 0.511438125 4.192063125 0.511438125
v 0.519811875 4.180625 0.519811875
v 0.522876875 4.165 0.522876875
v 0.519811875 4.149375 0.519811875
v 0.511438125 4.137936875 0.511438125
v 0.515625 4.192063125 0.504186875
v 0.527063125 4.180625 0.507251875
v 0.53125 4.165 0.508373125
v 0.527063125 4.149375 0.507251875
v 0.515625 4.137936875 0.504186875
v 0.515625 4.192063125 0.495813125
v 0.527063125 4.180625 0.492748125
v 0.53125 4.165 0.491626875
v 0.527063125 4.149375 0.492748125
v 0.515625 4.137936875 0.495813125
v 0.511438125 4.192063125 0.488561875
v 0.519811875 4.180625 0.480188125
v 0.522876875 4.165 0.477123125
v 0.519811875 4.149375 0.480188125
v 0.511438125 4.137936875 0.488561875
v 0.504186875 4.192063125 0.484375
v 0.507251875 4.180625 0.472936875
v 0.508373125 4.165 0.46875
v 0.507251875 4.149375 0.472936875
v 0.504186875 4.137936875 0.484375
v 0.495813125 4.192063125 0.484375
v 0.492748125 4.180625 0.472936875
v 0.491626875 4.165 0.46875
v 0.492748125 4.149375 0.472936875
v 0.495813125 4.137936875 0.484375
v 0.488561875 4.192063125 0.488561875
v 0.480188125 4.180625 0.480188125
v 0.477123125 4.165 0.477123125
v 0.480188125 4.149375 0.480188125
v 0.488561875 4.137936875 0.488561875
v 0.484375 4.192063125 0.495813125
v 0.472936875 4.180625 0.492748125
v 0.46875 4.165 0.491626875
v 0.472936875 4.149375 0.492748125
v 0.484375 4.137936875 0.495813125
v 0.484375 4.192063125 0.504186875
v 0.472936875 4.180625 0.507251875
v 0.46875 4.165 0.508373125
v 0.472936875 4.149375 0.507251875
v 0.484375 4.137936875 0.504186875
v 0.488561875 4.192063125 0.511438125
v 0.480188125 4.180625 0.519811875
v 0.477123125 4.165 0.522876875
v 0.480188125 4.149375 0.519811875
v 0.488561875 4.137936875 0.511438125
v 0.495813125 4.192063125 0.515625
v 0.492748125 4.180625 0.527063125
v 0.491626875 4.165 0.53125
v 0.492748125 4.149375 0.527063125
v 0.495813125 4.137936875 0.515625
vt 0 0.9919125
vt 0.0041875 0.9919125
vt 0.00209375 1
vt 0.0015328125 1
vt 0 0.9919125
vt 0.007253125 0.9919125
vt 0.0057203125 1
vt 0.000559375 1
vt 0 0.9919125
vt 0.008371875 0.9919125
vt 0.0078125 1
vt 0 1
vt 0.000559375 0.9919125
vt 0.0078125 0.9919125
vt 0.008371875 1
vt 0 1
vt 0.0015328125 0.9919125
vt 0.0057203125 0.9919125
vt 0.007253125 1
vt 0.0041875 1
vt 0 1
vt 0.00209375 0.9919125
vt 0 0.9919125
vt 0.0041875 0.9919125
vt 0.00209375 1
vt 0.0015328125 1
vt 0 0.9919125
vt 0.007253125 0.9919125
vt 0.0057203125 1
vt 0.000559375 1
vt 0 0.9919125
vt 0.008371875 0.9919125
vt 0.0078125 1
vt 0 1
vt 0.000559375 0.9919125
vt 0.0078125 0.9919125
vt 0.008371875 1
vt 0 1
vt 0.0015328125 0.9919125
vt 0.0057203125 0.9919125
vt 0.007253125 1
vt 0.0041875 1
vt 0 1
vt 0.00209375 0.9919125
vt 0 0.9919125
vt 0.0041875 0.9919125
vt 0.00209375 1
vt 0.0015328125 1
vt 0 0.9919125
vt 0.007253125 0.9919125
vt 0.0057203125 1
vt 0.000559375 1
vt 0 0.9919125
vt 0.008371875 0.9919125
vt 0.0078125 1
vt 0 1
vt 0.000559375 0.9919125
vt 0.0078125 0.9919125
vt 0.008371875 1
vt 0 1
vt 0.0015328125 0.9919125
vt 0.0057203125 0.9919125
vt 0.007253125 1
vt 0.0041875 1
vt 0 1
vt 0.00209375 0.9919125
vt 0 0.9919125
vt 0.0041875 0.9919125
vt 0.00209375 1
vt 0.0015328125 1
vt 0 0.9919125
vt 0.007253125 0.9919125
vt 0.0057203125 1
vt 0.000559375 1
vt 0 0.9919125
vt 0.008371875 0.9919125
vt 0.0078125 1
vt 0 1
vt 0.000559375 0.9919125
vt 0.0078125 0.9919125
vt 0.008371875 1
vt 0 1
vt 0.0015328125 0.9919125
vt 0.0057203125 0.9919125
vt 0.007253125 1
vt 0.0041875 1
vt 0 1
vt 0.00209375 0.9919125
vt 0 0.9919125
vt 0.0041875 0.9919125
vt 0.00209375 1
vt 0.0015328125 1
vt 0 0.9919125
vt 0.007253125 0.9919125
vt 0.0057203125 1
vt 0.000559375 1
vt 0 0.9919125
vt 0.008371875 0.9919125
vt 0.0078125 1
vt 0 1
vt 0.000559375 0.9919125
vt 0.0078125 0.9919125
vt 0.008371875 1
vt 0 1
vt 0.0015328125 0.9919125
vt 0.0057203125 0.9919125
vt 0.007253125 1
vt 0.0041875 1
vt 0 1
vt 0.00209375 0.9919125
vt 0 0.9919125
vt 0.0041875 0.9919125
vt 0.00209375 1
vt 0.0015328125 1
vt 0 0.9919125
vt 0.007253125 0.9919125
vt 0.0057203125 1
vt 0.000559375 1
vt 0 0.9919125
vt 0.008371875 0.9919125
vt 0.0078125 1
vt 0 1
vt 0.000559375 0.9919125
vt 0.0078125 0.9919125
vt 0.008371875 1
vt 0 1
vt 0.0015328125 0.9919125
vt 0.0057203125 0.9919125
vt 0.007253125 1
vt 0.0041875 1
vt 0 1
vt 0.00209375 0.9919125
vt 0 0.9919125
vt 0.0041875 0.9919125
vt 0.00209375 1
vt 0.0015328125 1
vt 0 0.9919125
vt 0.007253125 0.9919125
vt 0.0057203125 1
vt 0.000559375 1
vt 0 0.9919125
vt 0.008371875 0.9919125
vt 0.0078125 1
vt 0 1
vt 0.000559375 0.9919125
vt 0.0078125 0.9919125
vt 0.008371875 1
vt 0 1
vt 0.0015328125 0.9919125
vt 0.0057203125 0.9919125
vt 0.007253125 1
vt 0.0041875 1
vt 0 1
vt 0.00209375 0.9919125
vt 0 0.9919125
vt 0.0041875 0.9919125
vt 0.00209375 1
vt 0.0015328125 1
vt 0 0.9919125
vt 0.007253125 0.9919125
vt 0.0057203125 1
vt 0.000559375 1
vt 0 0.9919125
vt 0.008371875 0.9919125
vt 0.0078125 1
vt 0 1
vt 0.000559375 0.9919125
vt 0.0078125 0.9919125
vt 0.008371875 1
vt 0 1
vt 0.0015328125 0.9919125
vt 0.0057203125 0.9919125
vt 0.007253125 1
vt 0.0041875 1
vt 0 1
vt 0.00209375 0.9919125
vt 0 0.9919125
vt 0.0041875 0.9919125
vt 0.00209375 1
vt 0.0015328125 1
vt 0 0.9919125
vt 0.007253125 0.9919125
vt 0.0057203125 1
vt 0.000559375 1
vt 0 0.9919125
vt 0.008371875 0.9919125
vt 0.0078125 1
vt 0 1
vt 0.000559375 0.9919125
vt 0.0078125 0.9919125
vt 0.008371875 1
vt 0 1
vt 0.0015328125 0.9919125
vt 0.0057203125 0.9919125
vt 0.007253125 1
vt 0.0041875 1
vt 0 1
vt 0.00209375 0.9919125
vt 0 0.9919125
vt 0.0041875 0.9919125
vt 0.00209375 1
vt 0.0015328125 1
vt 0 0.9919125
vt 0.007253125 0.9919125
vt 0.0057203125 1
vt 0.000559375 1
vt 0 0.9919125
vt 0.008371875 0.9919125
vt 0.0078125 1
vt 0 1
vt 0.000559375 0.9919125
vt 0.0078125 0.9919125
vt 0.008371875 1
vt 0 1
vt 0.0015328125 0.9919125
vt 0.0057203125 0.9919125
vt 0.007253125 1
vt 0.0041875 1
vt 0 1
vt 0.00209375 0.9919125
vt 0 0.9919125
vt 0.0041875 0.9919125
vt 0.00209375 1
vt 0.0015328125 1
vt 0 0.9919125
vt 0.007253125 0.9919125
vt 0.0057203125 1
vt 0.000559375 1
vt 0 0.9919125
vt 0.008371875 0.9919125
vt 0.0078125 1
vt 0 1
vt 0.000559375 0.9919125
vt 0.0078125 0.9919125
vt 0.008371875 1
vt 0 1
vt 0.0015328125 0.9919125
vt 0.0057203125 0.9919125
vt 0.007253125 1
vt 0.0041875 1
vt 0 1
vt 0.00209375 0.9919125
vt 0 0.9919125
vt 0.0041875 0.9919125
vt 0.00209375 1
vt 0.0015328125 1
vt 0 0.9919125
vt 0.007253125 0.9919125
vt 0.0057203125 1
vt 0.000559375 1
vt 0 0.9919125
vt 0.008371875 0.9919125
vt 0.0078125 1
vt 0 1
vt 0.000559375 0.9919125
vt 0.0078125 0.9919125
vt 0.008371875 1
vt 0 1
vt 0.0015328125 0.9919125
vt 0.0057203125 0.9919125
vt 0.007253125 1
vt 0.0041875 1
vt 0 1
vt 0.00209375 0.9919125
vn 0.12942339324114527 0.965922913550052 0.22414841146197462
vn 0.3535415136716226 0.7071108340275325 0.6123746128895818
vn 0.4829369498840061 0.2588129833672121 0.8365331685458123
vn 0.48295040721139587 -0.2588119526880027 0.8365257182658343
vn 0.3535769541329455 -0.7071057450338899 0.6123600271459074
vn 0.12942339324114527 -0.965922913550052 0.22414841146197462
vn 0.22414841146197462 0.965922913550052 0.12942339324114527
vn 0.6123625722486474 0.7071247368002525 0.35353456226257995
vn 0.8365300778457726 0.25882630215420627 0.48293516559940586
vn 0.8365221493234312 -0.2588273325113501 0.48294834675808374
vn 0.6123391726629701 -0.707129825490301 0.3535649127451505
vn 0.22414841146197462 -0.965922913550052 0.12942339324114527
vn 0.25882878507177953 0.9659232164195386 0
vn 0.7071067811865476 0.7071067811865476 0
vn 0.9659232164195386 0.25882878507177953 0
vn 0.9659232164195385 -0.2588287850717795 0
vn 0.7071067811865476 -0.7071067811865476 0
vn 0.25882878507177953 -0.9659232164195386 0
vn 0.22414841146197462 0.965922913550052 -0.12942339324114527
vn 0.6123746128895818 0.7071108340275325 -0.3535415136716226
vn 0.8365331685458123 0.2588129833672121 -0.4829369498840061
vn 0.8365257182658343 -0.2588119526880027 -0.48295040721139587
vn 0.6123600271459074 -0.7071057450338899 -0.3535769541329455
vn 0.22414841146197462 -0.965922913550052 -0.12942339324114527
vn 0.12942339324114527 0.965922913550052 -0.22414841146197462
vn 0.35353456226257995 0.7071247368002525 -0.6123625722486474
vn 0.48293516559940586 0.25882630215420627 -0.8365300778457726
vn 0.48294834675808374 -0.2588273325113501 -0.8365221493234312
vn 0.3535649127451505 -0.707129825490301 -0.6123391726629701
vn 0.12942339324114527 -0.965922913550052 -0.22414841146197462
vn 0 0.9659232164195386 -0.25882878507177953
vn 0 0.7071067811865476 -0.7071067811865476
vn 0 0.25882878507177953 -0.9659232164195386
vn 0 -0.2588287850717795 -0.9659232164195385
vn 0 -0.7071067811865476 -0.7071067811865476
vn 0 -0.9659232164195386 -0.25882878507177953
vn -0.12942339324114527 0.965922913550052 -0.22414841146197462
vn -0.3535415136716226 0.7071108340275325 -0.6123746128895818
vn -0.4829369498840061 0.2588129833672121 -0.8365331685458123
vn -0.48295040721139587 -0.2588119526880027 -0.8365257182658343
vn -0.3535769541329455 -0.7071057450338899 -0.6123600271459074
vn -0.12942339324114527 -0.965922913550052 -0.22414841146197462
vn -0.22414841146197462 0.965922913550052 -0.12942339324114527
vn -0.6123625722486474 0.7071247368002525 -0.35353456226257995
vn -0.8365300778457726 0.25882630215420627 -0.48293516559940586
vn -0.8365221493234312 -0.2588273325113501 -0.48294834675808374
vn -0.6123391726629701 -0.707129825490301 -0.3535649127451505
vn -0.22414841146197462 -0.965922913550052 -0.12942339324114527
vn -0.25882878507177953 0.9659232164195386 0
vn -0.7071067811865476 0.7071067811865476 0
vn -0.9659232164195386 0.25882878507177953 0
vn -0.9659232164195385 -0.2588287850717795 0
vn -0.7071067811865476 -0.7071067811865476 0
vn -0.25882878507177953 -0.9659232164195386 0
vn -0.22414841146197462 0.965922913550052 0.12942339324114527
vn -0.6123746128895818 0.7071108340275325 0.3535415136716226
vn -0.8365331685458123 0.2588129833672121 0.4829369498840061
vn -0.8365257182658343 -0.2588119526880027 0.48295040721139587
vn -0.6123600271459074 -0.7071057450338899 0.3535769541329455
vn -0.22414841146197462 -0.965922913550052 0.12942339324114527
vn -0.12942339324114527 0.965922913550052 0.22414841146197462
vn -0.35353456226257995 0.7071247368002525 0.6123625722486474
vn -0.48293516559940586 0.25882630215420627 0.8365300778457726
vn -0.48294834675808374 -0.2588273325113501 0.8365221493234312
vn -0.3535649127451505 -0.707129825490301 0.6123391726629701
vn -0.12942339324114527 -0.965922913550052 0.22414841146197462
vn 0 0.9659232164195386 0.25882878507177953
vn 0 0.7071067811865476 0.7071067811865476
vn 0 0.25882878507177953 0.9659232164195386
vn 0 -0.2588287850717795 0.9659232164195385
vn 0 -0.7071067811865476 0.7071067811865476
vn 0 -0.9659232164195386 0.25882878507177953
usemtl none
f 200/819/232 205/820/232 199/821/232
f 200/822/233 201/823/233 206/824/233 205/825/233
f 201/826/234 202/827/234 207/828/234 206/829/234
f 202/830/235 203/831/235 208/832/235 207/833/235
f 203/834/236 204/835/236 209/836/236 208/837/236
f 209/838/237 204/839/237 198/840/237
f 205/841/238 210/842/238 199/843/238
f 205/844/239 206/845/239 211/846/239 210/847/239
f 206/848/240 207/849/240 212/850/240 211/851/240
f 207/852/241 208/853/241 213/854/241 212/855/241
f 208/856/242 209/857/242 214/858/242 213/859/242
f 214/860/243 209/861/243 198/862/243
f 210/863/244 215/864/244 199/865/244
f 210/866/245 211/867/245 216/868/245 215/869/245
f 211/870/246 212/871/246 217/872/246 216/873/246
f 212/874/247 213/875/247 218/876/247 217/877/247
f 213/878/248 214/879/248 219/880/248 218/881/248
f 219/882/249 214/883/249 198/884/249
f 215/885/250 220/886/250 199/887/250
f 215/888/251 216/889/251 221/890/251 220/891/251
f 216/892/252 217/893/252 222/894/252 221/895/252
f 217/896/253 218/897/253 223/898/253 222/899/253
f 218/900/254 219/901/254 224/902/254 223/903/254
f 224/904/255 219/905/255 198/906/255
f 220/907/256 225/908/256 199/909/256
f 220/910/257 221/911/257 226/912/257 225/913/257
f 221/914/258 222/915/258 227/916/258 226/917/258
f 222/918/259 223/919/259 228/920/259 227/921/259
f 223/922/260 224/923/260 229/924/260 228/925/260
f 229/926/261 224/927/261 198/928/261
f 225/929/262 230/930/262 199/931/262
f 225/932/263 226/933/263 231/934/263 230/935/263
f 226/936/264 227/937/264 232/938/264 231/939/264
f 227/940/265 228/941/265 233/942/265 232/943/265
f 228/944/266 229/945/266 234/946/266 233/947/266
f 234/948/267 229/949/267 198/950/267
f 230/951/268 235/952/268 199/953/268
f 230/954/269 231/955/269 236/956/269 235/957/269
f 231/958/270 232/959/270 237/960/270 236/961/270
f 232/962/271 233/963/271 238/964/271 237/965/271
f 233/966/272 234/967/272 239/968/272 238/969/272
f 239/970/273 234/971/273 198/972/273
f 235/973/274 240/974/274 199/975/274
f 235/976/275 236/977/275 241/978/275 240/979/275
f 236/980/276 237/981/276 242/982/276 241/983/276
f 237/984/277 238/985/277 243/986/277 242/987/277
f 238/988/278 239/989/278 244/990/278 243/991/278
f 244/992/279 239/993/279 198/994/279
f 240/995/280 245/996/280 199/997/280
f 240/998/281 241/999/281 246/1000/281 245/1001/281
f 241/1002/282 242/1003/282 247/1004/282 246/1005/282
f 242/1006/283 243/1007/283 248/1008/283 247/1009/283
f 243/1010/284 244/1011/284 249/1012/284 248/1013/284
f 249/1014/285 244/1015/285 198/1016/285
f 245/1017/286 250/1018/286 199/1019/286
f 245/1020/287 246/1021/287 251/1022/287 250/1023/287
f 246/1024/288 247/1025/288 252/1026/288 251/1027/288
f 247/1028/289 248/1029/289 253/1030/289 252/1031/289
f 248/1032/290 249/1033/290 254/1034/290 253/1035/290
f 254/1036/291 249/1037/291 198/1038/291
f 250/1039/292 255/1040/292 199/1041/292
f 250/1042/293 251/1043/293 256/1044/293 255/1045/293
f 251/1046/294 252/1047/294 257/1048/294 256/1049/294
f 252/1050/295 253/1051/295 258/1052/295 257/1053/295
f 253/1054/296 254/1055/296 259/1056/296 258/1057/296
f 259/1058/297 254/1059/297 198/1060/297
f 255/1061/298 200/1062/298 199/1063/298
f 255/1064/299 256/1065/299 201/1066/299 200/1067/299
f 256/1068/300 257/1069/300 202/1070/300 201/1071/300
f 257/1072/301 258/1073/301 203/1074/301 202/1075/301
f 258/1076/302 259/1077/302 204/1078/302 203/1079/302
f 204/1080/303 259/1081/303 198/1082/303
